<?xml version="1.0" standalone="no"?>
<!DOCTYPE svg PUBLIC "-//W3C//DTD SVG 20010904//EN"
 "http://www.w3.org/TR/2001/REC-SVG-20010904/DTD/svg10.dtd">
<svg version="1.0" xmlns="http://www.w3.org/2000/svg"
 width="480.000000pt" height="480.000000pt" viewBox="0 0 480.000000 480.000000"
 preserveAspectRatio="xMidYMid meet">
<metadata>
Created by potrace 1.14, written by Peter Selinger 2001-2017
</metadata>
<g transform="translate(0.000000,480.000000) scale(0.100000,-0.100000)"
fill="#000000" stroke="none">
<path d="M2176 3298 c1 -332 2 -609 3 -615 0 -7 5 -13 11 -13 5 0 39 -18 75
-40 36 -22 67 -40 70 -40 2 0 56 -31 121 -70 64 -38 118 -70 119 -70 2 0 140
-79 307 -176 166 -97 319 -185 339 -196 l36 -18 0 -218 0 -219 -366 1 -366 1
0 203 0 202 -175 0 -175 0 0 -375 0 -376 717 3 c471 2 719 6 721 13 2 5 3 255
3 554 -1 416 -4 545 -13 548 -7 3 -28 15 -48 29 -20 13 -38 24 -40 24 -2 0
-54 29 -115 65 -61 36 -130 76 -153 89 -61 34 -666 385 -688 399 -18 11 -19
28 -19 284 l0 273 370 0 370 0 0 -203 0 -204 172 1 172 1 1 355 c0 195 -1 363
-3 373 -4 16 -47 17 -726 17 l-721 0 1 -602z"/>
<path d="M217 3333 c-6 -13 -2 -2041 4 -2047 5 -5 620 -8 1310 -6 l96 0 0 165
0 165 -523 0 -524 0 0 695 0 695 370 0 370 0 0 -200 0 -200 173 0 172 0 0 368
0 367 -722 3 c-397 1 -724 -1 -726 -5z"/>
<path d="M4145 3066 c0 -151 3 -277 7 -281 7 -7 328 -8 335 -1 3 3 6 423 4
524 l-1 32 -173 0 -172 0 0 -274z"/>
<path d="M4241 1840 c-8 -5 -50 -165 -91 -345 -11 -49 -24 -101 -29 -115 -5
-14 -26 -97 -46 -185 -21 -88 -41 -167 -45 -175 -4 -8 -11 -38 -14 -65 l-7
-50 170 0 c162 0 170 1 176 20 39 141 224 909 220 913 -7 8 -324 9 -334 2z"/>
</g>
</svg>
