<svg id="eXGTUfKhNli1" xmlns="http://www.w3.org/2000/svg" xmlns:xlink="http://www.w3.org/1999/xlink" viewBox="0 0 552.441 80.957" shape-rendering="geometricPrecision" text-rendering="geometricPrecision"><style><![CDATA[#eXGTUfKhNli3_to {animation: eXGTUfKhNli3_to__to 3000ms linear 1 normal forwards}@keyframes eXGTUfKhNli3_to__to { 0% {transform: translate(247.583249px,43.0175px);animation-timing-function: cubic-bezier(0.645,0.045,0.355,1)} 33.333333% {transform: translate(25.243999px,43.0175px)} 100% {transform: translate(25.243999px,43.0175px)}} #eXGTUfKhNli4 {animation: eXGTUfKhNli4_c_o 3000ms linear 1 normal forwards}@keyframes eXGTUfKhNli4_c_o { 0% {opacity: 0} 23.333333% {opacity: 0} 30% {opacity: 1} 100% {opacity: 1}} #eXGTUfKhNli5 {animation: eXGTUfKhNli5_c_o 3000ms linear 1 normal forwards}@keyframes eXGTUfKhNli5_c_o { 0% {opacity: 0} 20% {opacity: 0} 26.666667% {opacity: 1} 100% {opacity: 1}} #eXGTUfKhNli6 {animation: eXGTUfKhNli6_c_o 3000ms linear 1 normal forwards}@keyframes eXGTUfKhNli6_c_o { 0% {opacity: 0} 16.666667% {opacity: 0} 20% {opacity: 1} 100% {opacity: 1}} #eXGTUfKhNli7 {animation: eXGTUfKhNli7_c_o 3000ms linear 1 normal forwards}@keyframes eXGTUfKhNli7_c_o { 0% {opacity: 0} 13.333333% {opacity: 0} 16.666667% {opacity: 1} 100% {opacity: 1}} #eXGTUfKhNli8 {animation: eXGTUfKhNli8_c_o 3000ms linear 1 normal forwards}@keyframes eXGTUfKhNli8_c_o { 0% {opacity: 0} 13.333333% {opacity: 0} 16.666667% {opacity: 1} 100% {opacity: 1}} #eXGTUfKhNli9 {animation: eXGTUfKhNli9_c_o 3000ms linear 1 normal forwards}@keyframes eXGTUfKhNli9_c_o { 0% {opacity: 0} 6.666667% {opacity: 0} 13.333333% {opacity: 1} 100% {opacity: 1}} #eXGTUfKhNli10 {animation: eXGTUfKhNli10_c_o 3000ms linear 1 normal forwards}@keyframes eXGTUfKhNli10_c_o { 0% {opacity: 0} 13.333333% {opacity: 0} 16.666667% {opacity: 1} 100% {opacity: 1}} #eXGTUfKhNli11 {animation: eXGTUfKhNli11_c_o 3000ms linear 1 normal forwards}@keyframes eXGTUfKhNli11_c_o { 0% {opacity: 0} 13.333333% {opacity: 0} 16.666667% {opacity: 1} 100% {opacity: 1}} #eXGTUfKhNli12 {animation: eXGTUfKhNli12_c_o 3000ms linear 1 normal forwards}@keyframes eXGTUfKhNli12_c_o { 0% {opacity: 0} 16.666667% {opacity: 0} 20% {opacity: 1} 100% {opacity: 1}} #eXGTUfKhNli13 {animation: eXGTUfKhNli13_c_o 3000ms linear 1 normal forwards}@keyframes eXGTUfKhNli13_c_o { 0% {opacity: 0} 23.333333% {opacity: 0} 26.666667% {opacity: 1} 100% {opacity: 1}} #eXGTUfKhNli14_to {animation: eXGTUfKhNli14_to__to 3000ms linear 1 normal forwards}@keyframes eXGTUfKhNli14_to__to { 0% {transform: translate(284.252751px,40.527501px);animation-timing-function: cubic-bezier(0.645,0.045,0.355,1)} 33.333333% {transform: translate(492.724001px,40.527501px)} 100% {transform: translate(492.724001px,40.527501px)}} #eXGTUfKhNli15_to {animation: eXGTUfKhNli15_to__to 3000ms linear 1 normal forwards}@keyframes eXGTUfKhNli15_to__to { 0% {transform: translate(319.701741px,43.0175px);animation-timing-function: cubic-bezier(0.645,0.045,0.355,1)} 33.333333% {transform: translate(528.172991px,43.0175px)} 100% {transform: translate(528.172991px,43.0175px)}}]]></style><g id="eXGTUfKhNli2"><g id="eXGTUfKhNli3_to" transform="translate(247.583249,43.0175)"><path id="eXGTUfKhNli3" d="M38.184,65.625L0,42.969L45.41,20.41L50.488,27.051L16.309,42.969L45.508,58.984L38.184,65.625Z" transform="translate(-25.243999,-43.0175)" fill="#6b4f8f" fill-rule="evenodd" stroke="#6b4f8f" stroke-width="0.944882" stroke-linecap="round"/></g><path id="eXGTUfKhNli4" d="M84.57,66.016L53.516,66.016L60.547,21.973L91.504,21.973L84.57,66.016ZM78.223,58.984L82.91,29.199L67.09,29.297L62.402,58.984L78.223,58.984Z" opacity="0" fill="#6b4f8f" fill-rule="evenodd" stroke="#6b4f8f" stroke-width="0.944882" stroke-linecap="round"/><path id="eXGTUfKhNli5" d="M105.664,21.973L129.297,21.973L132.813,0L140.234,0L129.785,66.016L98.828,66.016L105.664,21.973ZM107.715,58.691L123.535,58.789L128.223,29.004L112.402,29.004L107.715,58.691Z" opacity="0" fill="#6b4f8f" fill-rule="evenodd" stroke="#6b4f8f" stroke-width="0.944882" stroke-linecap="round"/><path id="eXGTUfKhNli6" d="M160.059,21.973L152.637,22.07L145.801,66.016L153.125,66.016L160.059,21.973ZM163.574,0L156.152,0L154.199,12.988L161.523,12.988L163.574,0Z" opacity="0" fill="#6b4f8f" fill-rule="evenodd" stroke="#6b4f8f" stroke-width="0.944882" stroke-linecap="round"/><path id="eXGTUfKhNli7" d="M194.043,66.016L201.855,66.016L208.789,21.973L177.832,21.973L170.801,66.016L178.223,66.016L184.082,29.004L199.902,29.004L194.043,66.016Z" opacity="0" fill="#6b4f8f" fill-rule="evenodd" stroke="#6b4f8f" stroke-width="0.944882" stroke-linecap="round"/><path id="eXGTUfKhNli8" d="M241.211,58.691L225.391,58.691L226.758,50L219.336,50L216.895,66.016L247.656,65.918L251.367,42.285L230.469,29.004L232.422,17.285L248.145,17.285L246.777,25.977L254.199,25.977L256.641,10.059L225.684,10.059L221.582,36.035L242.676,49.414L241.211,58.691Z" opacity="0" fill="#6b4f8f" fill-rule="evenodd" stroke="#6b4f8f" stroke-width="0.944882" stroke-linecap="round"/><path id="eXGTUfKhNli9" d="M291.895,58.984L290.723,66.016L272.754,66.016L278.516,29.004L269.531,29.004L270.801,21.973L279.785,21.973L281.738,8.984L289.16,8.984L287.109,21.973L297.754,21.973L296.582,29.004L285.938,29.004L281.25,58.984L291.895,58.984Z" opacity="0" fill="#6b4f8f" fill-rule="evenodd" stroke="#6b4f8f" stroke-width="0.944882" stroke-linecap="round"/><path id="eXGTUfKhNli10" d="M330.859,37.988L332.129,29.199L321.289,29.297L315.527,66.016L307.715,66.016L314.746,21.973L340.723,21.973L338.184,37.988L330.859,37.988Z" opacity="0" fill="#6b4f8f" fill-rule="evenodd" stroke="#6b4f8f" stroke-width="0.944882" stroke-linecap="round"/><path id="eXGTUfKhNli11" d="M377.832,21.973L385.645,21.973L378.711,66.016L347.656,66.016L354.688,21.973L362.109,21.973L356.152,58.984L371.973,58.984L377.832,21.973Z" opacity="0" fill="#6b4f8f" fill-rule="evenodd" stroke="#6b4f8f" stroke-width="0.944882" stroke-linecap="round"/><path id="eXGTUfKhNli12" d="M422.754,37.988L424.023,29.297L408.203,29.297L403.516,58.984L425.977,58.984L424.805,66.016L394.629,66.016L401.66,21.973L432.617,21.973L430.176,37.988L422.754,37.988Z" opacity="0" fill="#6b4f8f" fill-rule="evenodd" stroke="#6b4f8f" stroke-width="0.944882" stroke-linecap="round"/><path id="eXGTUfKhNli13" d="M468.75,58.984L467.578,66.016L449.609,66.016L455.371,29.004L446.387,29.004L447.656,21.973L456.641,21.973L458.594,8.984L466.016,8.984L463.965,21.973L474.609,21.973L473.438,29.004L462.793,29.004L458.105,58.984L468.75,58.984Z" opacity="0" fill="#6b4f8f" fill-rule="evenodd" stroke="#6b4f8f" stroke-width="0.944882" stroke-linecap="round"/><g id="eXGTUfKhNli14_to" transform="translate(284.252751,40.527501)"><path id="eXGTUfKhNli14" d="M509.863,1.758L502.93,0.098L473.633,79.297L480.566,80.957L509.863,1.758Z" transform="translate(-491.748001,-40.527501)" fill="#6b4f8f" fill-rule="evenodd" stroke="#6b4f8f" stroke-width="0.944882" stroke-linecap="round"/></g><g id="eXGTUfKhNli15_to" transform="translate(319.701741,43.0175)"><path id="eXGTUfKhNli15" d="M507.031,65.625L552.441,42.969L514.258,20.41L506.934,27.051L536.133,42.969L501.953,58.984L507.031,65.625Z" transform="translate(-527.196991,-43.0175)" fill="#6b4f8f" fill-rule="evenodd" stroke="#6b4f8f" stroke-width="0.944882" stroke-linecap="round"/></g></g></svg>